<svg xmlns="http://www.w3.org/2000/svg" viewBox="0 0 54.66 29.02"><defs><style>.cls-1{fill:#08ca4f;}</style></defs><title>Klamme</title><g id="Layer_2" data-name="Layer 2"><g id="Layer_1-2" data-name="Layer 1"><path class="cls-1" d="M14.37,29a2.49,2.49,0,0,1-1.77-.73L.73,16.42a2.52,2.52,0,0,1,0-3.54L12.24,1.37a2.5,2.5,0,0,1,3.54,3.54L6,14.65l10.1,10.1A2.5,2.5,0,0,1,14.37,29Z"/><path class="cls-1" d="M40.29,29a2.5,2.5,0,0,1-1.77-4.27l10.1-10.1L38.88,4.91a2.5,2.5,0,0,1,3.54-3.54L53.93,12.88a2.52,2.52,0,0,1,0,3.54L42.06,28.29A2.49,2.49,0,0,1,40.29,29Z"/><path class="cls-1" d="M22.43,29a2.32,2.32,0,0,1-1-.21,2.5,2.5,0,0,1-1.3-3.29l10.47-24a2.5,2.5,0,0,1,4.59,2l-10.47,24A2.5,2.5,0,0,1,22.43,29Z"/></g></g></svg>