<?xml version="1.0" encoding="UTF-8" standalone="no"?>
<svg width="797px" height="96px" viewBox="0 0 797 96" version="1.1" xmlns="http://www.w3.org/2000/svg" xmlns:xlink="http://www.w3.org/1999/xlink" xmlns:sketch="http://www.bohemiancoding.com/sketch/ns">
    <!-- Generator: Sketch 3.3.3 (12072) - http://www.bohemiancoding.com/sketch -->
    <title>strandveien auto_horisontal-POS</title>
    <desc>Created with Sketch.</desc>
    <defs>
        <path id="path-1" d="M0,0.366 L796.344,0.366 L796.344,95.94 L0,95.94"></path>
    </defs>
    <g id="Page-1" stroke="none" stroke-width="1" fill="none" fill-rule="evenodd" sketch:type="MSPage">
        <g id="strandveien-auto_horisontal-POS" sketch:type="MSLayerGroup">
            <g id="Group-4">
                <mask id="mask-2" sketch:name="Clip 2" fill="white">
                    <use xlink:href="#path-1"></use>
                </mask>
                <g id="Clip-2"></g>
                <path d="M100.151,8.793 C89.528,11.06 81.858,14.211 77.139,18.242 C72.902,21.862 72.335,24.955 75.439,27.52 C78.483,30.131 86.485,32.945 86.485,32.945 C90.794,34.46 97.899,36.771 102.273,38.083 L111.825,40.944 C116.2,42.253 123.306,44.566 127.614,46.082 C127.614,46.082 145.783,52.468 149.947,56.455 C153.93,60.486 152.706,65.252 146.27,70.75 C137.634,78.127 122.678,84.289 101.397,89.236 C86.433,92.717 62.675,95.152 62.675,95.152 C58.132,95.619 58.152,96 62.719,96 L138.5,96 C143.066,96 148.294,92.572 150.115,88.383 L182.96,12.825 C184.78,8.637 182.533,5.226 177.967,5.245 L152.667,5.354 C148.099,5.374 140.627,5.517 136.063,5.671 C136.063,5.671 110.771,6.524 100.151,8.793" id="Fill-1" fill="#FFFFFF" sketch:type="MSShapeGroup" mask="url(#mask-2)"></path>
                <path d="M73.621,87.174 C86.045,84.334 95.236,80.371 101.188,75.285 C106.551,70.705 106.638,66.719 101.45,63.326 C97.991,61.174 82.897,56.225 82.897,56.225 C78.557,54.801 71.43,52.549 67.061,51.221 L58.322,48.562 C53.953,47.232 46.864,44.87 42.571,43.31 C42.571,43.31 37.692,41.541 34.435,39.205 C28.548,34.761 28.742,29.857 35.017,24.495 C43.329,17.395 56.813,11.485 75.468,6.765 C88.346,3.507 108.011,1.294 108.011,1.294 C112.549,0.783 112.527,0.366 107.959,0.366 L45.132,0.366 C40.565,0.366 35.337,3.792 33.515,7.982 L0.632,83.631 C-1.188,87.82 1.059,91.271 5.627,91.301 L18.422,91.383 C22.991,91.414 30.462,91.283 35.024,91.096 C35.024,91.096 61.194,90.016 73.621,87.174" id="Fill-3" fill="#FFFFFF" sketch:type="MSShapeGroup" mask="url(#mask-2)"></path>
            </g>
            <path d="M214.833,36.116 C214.833,44.892 219.918,45.712 229.596,46.942 C241.652,48.5 249.116,51.453 249.116,63.509 C249.116,71.875 244.687,82.045 226.397,82.045 C220.738,82.045 213.029,80.486 209.174,78.764 L209.174,73.433 C213.111,74.745 217.95,76.878 226.479,76.878 C239.274,76.878 243.128,70.891 243.128,63.509 C243.128,54.733 239.52,53.011 229.268,51.699 C214.751,49.895 209.174,46.532 209.174,36.034 C209.174,28.898 212.619,18.893 229.842,18.893 C237.388,18.893 242.473,20.205 245.835,21.763 L245.835,27.258 C240.258,24.88 235.829,24.06 229.76,24.06 C217.622,24.06 214.833,29.637 214.833,36.116" id="Fill-5" fill="#FFFFFF" sketch:type="MSShapeGroup"></path>
            <path d="M280.201,81.717 C279.216,81.963 277.576,82.045 276.51,82.045 C269.703,82.045 263.387,78.928 263.387,70.891 L263.387,44.728 L255.186,44.728 L255.186,42.185 L263.387,39.807 L263.387,28.734 L269.128,27.094 L269.128,40.217 L281.841,40.217 L281.841,44.728 L269.128,44.728 L269.128,70.234 C269.128,75.237 271.835,77.288 277.002,77.288 C278.068,77.288 279.134,77.206 280.201,77.124 L280.201,81.717" id="Fill-6" fill="#FFFFFF" sketch:type="MSShapeGroup"></path>
            <path d="M312.188,45.138 C310.958,44.728 309.317,44.481 307.267,44.481 C301.69,44.481 298.41,45.384 295.375,47.105 L295.375,81.225 L289.634,81.225 L289.634,40.217 L292.833,40.217 L294.063,43.661 C297.917,40.791 302.674,39.397 307.267,39.397 C309.154,39.397 310.63,39.561 312.188,39.807 L312.188,45.138" id="Fill-7" fill="#FFFFFF" sketch:type="MSShapeGroup"></path>
            <path d="M330.725,60.475 C324.901,61.049 322.359,64.083 322.359,68.84 C322.359,72.531 323.261,76.96 331.053,76.96 C335.481,76.96 338.434,75.729 341.961,73.679 L341.961,59.408 L330.725,60.475 L330.725,60.475 Z M332.201,44.481 C326.706,44.481 323.097,45.466 319.898,46.532 L319.898,41.611 C323.507,40.053 328.264,39.397 332.201,39.397 C344.503,39.397 347.702,44.974 347.702,53.175 L347.702,81.225 L344.503,81.225 L343.273,77.944 C339.583,80.65 334.989,82.045 330.889,82.045 C320.145,82.045 316.536,75.729 316.536,68.84 C316.536,61.869 320.391,56.702 331.135,56.046 L341.961,55.39 L341.961,53.093 C341.961,47.105 339.829,44.481 332.201,44.481 L332.201,44.481 Z" id="Fill-8" fill="#FFFFFF" sketch:type="MSShapeGroup"></path>
            <path d="M383.38,51.453 C383.38,46.122 380.264,44.481 375.179,44.481 C369.848,44.481 367.141,45.384 364.106,47.105 L364.106,81.225 L358.365,81.225 L358.365,40.217 L361.564,40.217 L362.794,43.661 C366.649,40.791 370.832,39.397 375.179,39.397 C384.938,39.397 389.121,43.825 389.121,51.699 L389.121,81.225 L383.38,81.225 L383.38,51.453" id="Fill-9" fill="#FFFFFF" sketch:type="MSShapeGroup"></path>
            <path d="M404.296,60.721 C404.296,68.84 405.526,76.96 415.368,76.96 C420.699,76.96 423.651,76.058 426.851,74.335 L426.851,47.105 C423.651,45.384 420.699,44.481 415.368,44.481 C405.526,44.481 404.296,52.601 404.296,60.721 L404.296,60.721 Z M426.851,42.759 L426.851,19.713 L432.592,19.713 L432.592,81.225 L429.393,81.225 L428.163,77.862 C423.897,80.568 419.797,82.045 415.368,82.045 C402.163,82.045 398.555,72.531 398.555,60.721 C398.555,48.91 402.163,39.397 415.368,39.397 C419.141,39.397 423.323,40.463 426.851,42.759 L426.851,42.759 Z" id="Fill-10" fill="#FFFFFF" sketch:type="MSShapeGroup"></path>
            <path d="M445.878,40.217 L457.606,73.843 L469.335,40.217 L475.65,40.217 L459.657,82.045 L455.557,82.045 L439.563,40.217 L445.878,40.217" id="Fill-11" fill="#FFFFFF" sketch:type="MSShapeGroup"></path>
            <path d="M485.904,58.67 L507.229,58.67 C507.229,51.371 506.818,44.481 497.387,44.481 C487.873,44.481 486.15,51.289 485.904,58.67 L485.904,58.67 Z M497.387,39.397 C511.329,39.397 512.97,48.91 512.97,60.721 L512.97,63.345 L485.904,63.345 C486.232,70.48 488.119,76.96 497.387,76.96 C503.292,76.96 506.9,76.386 510.919,74.663 L510.919,79.584 C506.326,81.635 501.405,82.045 497.387,82.045 C483.526,82.045 480.163,72.531 480.163,60.721 C480.163,48.91 483.526,39.397 497.387,39.397 L497.387,39.397 Z" id="Fill-12" fill="#FFFFFF" sketch:type="MSShapeGroup"></path>
            <path d="M524.125,73.023 L524.125,40.217 L529.702,40.217 L529.702,73.679 C529.702,76.55 530.604,77.37 533.146,77.37 L533.146,82.045 C527.241,82.045 524.125,79.584 524.125,73.023 L524.125,73.023 Z M526.913,23.813 C529.21,23.813 531.014,25.618 531.014,27.914 C531.014,30.211 529.21,32.015 526.913,32.015 C524.617,32.015 522.813,30.211 522.813,27.914 C522.813,25.618 524.617,23.813 526.913,23.813 L526.913,23.813 Z" id="Fill-13" fill="#FFFFFF" sketch:type="MSShapeGroup"></path>
            <path d="M547.418,58.67 L568.742,58.67 C568.742,51.371 568.332,44.481 558.9,44.481 C549.387,44.481 547.664,51.289 547.418,58.67 L547.418,58.67 Z M558.9,39.397 C572.843,39.397 574.483,48.91 574.483,60.721 L574.483,63.345 L547.418,63.345 C547.746,70.48 549.633,76.96 558.9,76.96 C564.806,76.96 568.414,76.386 572.433,74.663 L572.433,79.584 C567.84,81.635 562.919,82.045 558.9,82.045 C545.04,82.045 541.677,72.531 541.677,60.721 C541.677,48.91 545.04,39.397 558.9,39.397 L558.9,39.397 Z" id="Fill-14" fill="#FFFFFF" sketch:type="MSShapeGroup"></path>
            <path d="M609.341,51.453 C609.341,46.122 606.225,44.481 601.14,44.481 C595.809,44.481 593.102,45.384 590.067,47.105 L590.067,81.225 L584.326,81.225 L584.326,40.217 L587.524,40.217 L588.755,43.661 C592.609,40.791 596.793,39.397 601.14,39.397 C610.899,39.397 615.082,43.825 615.082,51.699 L615.082,81.225 L609.341,81.225 L609.341,51.453" id="Fill-15" fill="#FFFFFF" sketch:type="MSShapeGroup"></path>
            <path d="M649.53,59.162 L669.952,59.162 L659.782,28.242 L649.53,59.162 L649.53,59.162 Z M635.998,81.225 L657.731,18.893 L661.833,18.893 L683.567,81.225 L677.252,81.225 L671.593,64.001 L647.972,64.001 L642.313,81.225 L635.998,81.225 L635.998,81.225 Z" id="Fill-16" fill="#FFFFFF" sketch:type="MSShapeGroup"></path>
            <path d="M696.281,69.988 C696.281,75.319 699.397,76.96 704.482,76.96 C709.813,76.96 712.521,76.058 715.555,74.335 L715.555,40.217 L721.296,40.217 L721.296,81.225 L718.098,81.225 L716.867,77.78 C713.013,80.65 708.83,82.045 704.482,82.045 C694.723,82.045 690.54,77.616 690.54,69.742 L690.54,40.217 L696.281,40.217 L696.281,69.988" id="Fill-17" fill="#FFFFFF" sketch:type="MSShapeGroup"></path>
            <path d="M753.283,81.717 C752.299,81.963 750.658,82.045 749.593,82.045 C742.785,82.045 736.47,78.928 736.47,70.891 L736.47,44.728 L728.269,44.728 L728.269,42.185 L736.47,39.807 L736.47,28.734 L742.211,27.094 L742.211,40.217 L754.924,40.217 L754.924,44.728 L742.211,44.728 L742.211,70.234 C742.211,75.237 744.918,77.288 750.085,77.288 C751.15,77.288 752.217,77.206 753.283,77.124 L753.283,81.717" id="Fill-18" fill="#FFFFFF" sketch:type="MSShapeGroup"></path>
            <path d="M779.12,44.481 C768.294,44.481 767.638,51.453 767.638,60.721 C767.638,69.988 768.294,76.96 779.12,76.96 C789.782,76.96 790.603,69.988 790.603,60.721 C790.603,51.453 789.782,44.481 779.12,44.481 L779.12,44.481 Z M779.12,82.045 C765.096,82.045 761.896,73.27 761.896,60.721 C761.896,48.172 765.096,39.397 779.12,39.397 C793.227,39.397 796.344,48.172 796.344,60.721 C796.344,73.27 793.227,82.045 779.12,82.045 L779.12,82.045 Z" id="Fill-19" fill="#FFFFFF" sketch:type="MSShapeGroup"></path>
        </g>
    </g>
</svg>