<?xml version="1.0" encoding="utf-8"?>
<!-- Generator: Adobe Illustrator 17.0.0, SVG Export Plug-In . SVG Version: 6.00 Build 0)  -->
<!DOCTYPE svg PUBLIC "-//W3C//DTD SVG 1.1//EN" "http://www.w3.org/Graphics/SVG/1.1/DTD/svg11.dtd">
<svg version="1.1" id="Layer_1" xmlns="http://www.w3.org/2000/svg" xmlns:xlink="http://www.w3.org/1999/xlink" x="0px" y="0px"
	 width="170px" height="24px" viewBox="0 0 170 24" enable-background="new 0 0 170 24" xml:space="preserve">
<path fill="#404040" d="M158.704,20.062c-1.294,0-1.989-0.566-1.828-1.382c0.376-2.142,3.122-1.637,5.454-2.676
	C162.078,18.269,161.006,20.062,158.704,20.062 M168.476,23.307l0.065-0.309c-0.726-0.695-0.695-1.167-0.505-2.112l1.355-7.725
	c0.695-3.952,0.725-6.851-7.092-6.851c-6.533,0-9.371,2.048-10.001,5.545h6.308c0.41-1.414,1.672-1.608,2.588-1.608
	c0.692,0,2.112,0.158,1.892,1.361c-0.536,3.098-11.703-0.317-13.026,7.197c-0.602,3.43,1.893,4.977,5.015,4.977
	c2.458,0,4.447-0.505,6.624-2.236v1.761C161.699,23.307,168.476,23.307,168.476,23.307z M143.215,4.665h6.555L150.591,0h-6.558
	L143.215,4.665z M146.49,23.307l2.904-16.524h-6.561l-2.901,16.524H146.49z M124.761,23.307h7.317l8.481-16.524h-6.311
	l-4.697,10.436L128.48,6.783h-6.56L124.761,23.307z M94.793,23.307h7.44l1.262-7.191l2.115-1.857l3.847,9.049h8.928l-6.687-14.159
	l9.809-8.547h-8.737l-7.825,7.347l1.297-7.347h-7.446L94.793,23.307z M62.393,23.307h6.562l1.485-8.421
	c0.378-2.112,1.135-3.406,3.154-3.406c1.86,0,2.049,1.449,1.768,3.092l-1.547,8.734h6.562l1.732-9.905
	c0.82-4.539-0.789-7.091-5.14-7.091c-2.491,0-4.29,1.071-6.12,3.057l0.443-2.584h-5.994L62.393,23.307z M61.099,16.527
	c1.135-5.994-1.8-10.216-7.92-10.216c-5.295,0-9.965,3.465-10.942,8.896c-0.976,5.551,2.588,8.576,7.883,8.576
	c1.923,0,4.005-0.347,5.805-1.2c1.829-0.852,3.406-2.207,4.32-4.255H53.97c-0.662,0.978-1.671,1.453-2.714,1.453
	c-1.732,0-3.025-1.294-2.679-3.254C48.577,16.527,61.099,16.527,61.099,16.527z M49.174,13.185c0.283-1.767,1.607-2.873,3.563-2.873
	c1.548,0,2.649,1.358,2.397,2.873H49.174z M26.621,23.307h7.319l8.483-16.524h-6.308l-4.7,10.436L30.343,6.783h-6.558L26.621,23.307
	z M21.73,7.191C21.889,3.218,19.584,0,13.279,0C7.6,0,3.028,2.426,2.174,7.252c-1.543,8.679,11.925,6.311,11.327,9.749
	c-0.189,1.074-1.517,1.673-3.38,1.673c-0.723,0-1.48-0.188-2.019-0.569c-0.568-0.375-0.883-0.974-0.914-1.796H0.063
	c-0.569,4.099,2.742,7.6,8.733,7.6c6.25,0,11.074-2.553,11.988-7.822c1.48-8.268-11.954-6.15-11.357-9.559
	c0.126-0.821,0.946-1.297,2.591-1.297c0.726,0,1.357,0.129,1.861,0.414c0.472,0.285,0.82,0.757,0.788,1.546H21.73z"/>
</svg>
