<?xml version="1.0" encoding="utf-8"?>
<!-- Generator: Adobe Illustrator 22.0.1, SVG Export Plug-In . SVG Version: 6.00 Build 0)  -->
<svg version="1.1" id="mobile-logo" xmlns="http://www.w3.org/2000/svg" xmlns:xlink="http://www.w3.org/1999/xlink" x="0px"
	 y="0px" viewBox="0 0 541 108.8" style="enable-background:new 0 0 541 108.8;" xml:space="preserve">
<style type="text/css">
	.st0{fill:#E35205;}
	.st1{fill:#888B8D;}
</style>
<title>Artboard 4</title>
<path class="st0" d="M541,75.5c0.2,12.7-8.5,18-23,18h-0.2c-4.2,12-17.3,18.3-29.3,14.2c-6.6-2.3-11.8-7.5-14.2-14.2h-44.8
	l18.4-15.3h26.4c4.2-12,17.3-18.3,29.3-14.2c6.6,2.3,11.8,7.5,14.2,14.2h5.3c3.7,0,3-6.1,3-6.1l0,0c0-1.9-0.5-3.7-1.5-5.3
	c-1.3-1.8-4.1-3.5-5.3-4.3c-11.8-7.3-23.5-7.2-28.4-7.4c-6-0.2-13.8-0.1-27.1,0.6l0,0l-24.6-20.2c-3-3-3-7.9,0-10.9c0,0,0,0,0,0l0,0
	c3-3,7.9-3,10.9,0l21.4,17.8c8.8-0.2,16.8-0.7,26.1,0.4c12.1,1.5,19.8,2.8,32.2,11c4.8,3,8.3,7.6,10,13
	C540.5,69.6,541,72.5,541,75.5z M510.9,85.8c0-8.2-6.6-14.8-14.8-14.8c-8.2,0-14.8,6.6-14.8,14.8c0,8.2,6.6,14.8,14.8,14.8
	C504.2,100.7,510.8,94,510.9,85.8C510.9,85.8,510.9,85.8,510.9,85.8z"/>
<path class="st1" d="M116.9,93.5H98.5V55.1c0-8.5-6.9-15.4-15.4-15.4s-15.4,6.9-15.4,15.4v38.4H49.2V55.1c0-8.5-6.9-15.4-15.4-15.4
	s-15.4,6.9-15.4,15.4v38.4H0V55.1c0-16.9,15.1-30.7,33.8-30.7c9.1-0.1,18,3.3,24.6,9.6c6.7-6.2,15.5-9.7,24.6-9.6
	c18.7,0,33.8,13.7,33.8,30.7V93.5z"/>
<path class="st1" d="M290.7,47.5v23c0,12.7-11.5,23-26.1,23h-24.7c-14.6,0-26.1-10.3-26.1-23V9.4c0-5.1,4.1-9.2,9.2-9.2
	c5.1,0,9.2,4.1,9.2,9.2v16.2c2.5-0.7,5.1-1,7.6-1h24.7C279.2,24.6,290.7,34.9,290.7,47.5z M272.3,47.5c0-4.2-3.4-7.6-7.6-7.7h-24.7
	c-4.2,0-7.6,3.3-7.6,7.5v23.1c0,4.2,3.4,7.7,7.6,7.7h24.7c4.2,0,7.6-3.4,7.6-7.7L272.3,47.5z"/>
<path class="st1" d="M338.4,0L338.4,0c-5.1,0-9.2,4.1-9.2,9.2c0,0,0,0,0,0v84.2h18.5V9.2C347.6,4.1,343.5,0,338.4,0z"/>
<path class="st1" d="M309.8,23.1L309.8,23.1c-5.1,0-9.2,4.1-9.2,9.2c0,0,0,0,0,0v61.2H319V32.3C319,27.2,314.9,23.1,309.8,23.1z"/>
<path class="st1" d="M153,93.5c-14.6,0-26.1-10.3-26.1-23v-23c0-12.7,11.5-23,26.1-23h24.7c14.6,0,26.1,10.3,26.1,23v23
	c0,12.7-11.5,23-26.1,23H153z M145.3,70.5c0,4.2,3.4,7.7,7.6,7.7c0,0,0,0,0.1,0h24.7c4.2,0,7.6-3.4,7.6-7.7v-23
	c0-4.2-3.4-7.6-7.6-7.7H153c-4.2,0-7.6,3.4-7.6,7.6c0,0,0,0,0,0L145.3,70.5z"/>
<path class="st1" d="M375.6,70.6c0.1-4.1,3.4-7.5,7.6-7.5h32.6c11.6,0,18.2-7,18.2-15.5c0-12.7-11.5-23-26.1-23h-24.7
	c-14.6,0-26.1,10.3-26.1,23v23.2l0,0c0.1,12.6,11.6,22.7,26.1,22.7h32.3L434,78.2h-50.7C379.1,78.2,375.7,74.8,375.6,70.6z
	 M383.3,39.9H408c4.2,0,7.6,3.4,7.6,7.7c0,2.9-0.1,5.2-4.4,5.2H380c-4.2,0-4.4-2.3-4.4-5.2l0,0C375.6,43.3,379.1,39.9,383.3,39.9
	C383.3,39.9,383.3,39.9,383.3,39.9z"/>
</svg>
